<mxfile host="drawio-plugin" modified="2022-12-05T16:39:16.317Z" agent="5.0 (Macintosh; Intel Mac OS X 10_15_7) AppleWebKit/537.36 (KHTML, like Gecko) Chrome/104.0.5112.102 Safari/537.36" etag="SwXfssm_q2Zm8MrVP6jm" version="20.5.3" type="embed"><diagram id="23iRSUPoRavnBvh4doch" name="Page-1"><mxGraphModel dx="1580" dy="823" grid="1" gridSize="10" guides="1" tooltips="1" connect="1" arrows="1" fold="1" page="1" pageScale="1" pageWidth="827" pageHeight="1169" math="0" shadow="0"><root><mxCell id="0"/><mxCell id="1" parent="0"/><mxCell id="70" style="edgeStyle=orthogonalEdgeStyle;rounded=0;orthogonalLoop=1;jettySize=auto;html=1;exitX=1;exitY=0.5;exitDx=0;exitDy=0;" parent="1" source="305" edge="1"><mxGeometry relative="1" as="geometry"><mxPoint x="900" y="715" as="targetPoint"/><Array as="points"/></mxGeometry></mxCell><mxCell id="100" style="edgeStyle=orthogonalEdgeStyle;rounded=0;orthogonalLoop=1;jettySize=auto;html=1;exitX=0;exitY=0.5;exitDx=0;exitDy=0;entryX=0;entryY=0.25;entryDx=0;entryDy=0;" parent="1" source="79" target="5" edge="1"><mxGeometry relative="1" as="geometry"><mxPoint x="250" y="400" as="targetPoint"/><Array as="points"><mxPoint x="120" y="295"/><mxPoint x="120" y="398"/></Array></mxGeometry></mxCell><mxCell id="107" value="" style="edgeStyle=orthogonalEdgeStyle;rounded=0;orthogonalLoop=1;jettySize=auto;html=1;" parent="1" source="5" target="111" edge="1"><mxGeometry relative="1" as="geometry"><mxPoint x="140" y="144" as="targetPoint"/></mxGeometry></mxCell><mxCell id="133" value="" style="group" parent="1" vertex="1" connectable="0"><mxGeometry x="40" y="380" width="120" height="90" as="geometry"/></mxCell><mxCell id="5" value="" style="rounded=0;whiteSpace=wrap;html=1;fillColor=#1ba1e2;fontColor=#ffffff;strokeColor=#006EAF;" parent="133" vertex="1"><mxGeometry x="90" width="20" height="70" as="geometry"/></mxCell><mxCell id="93" value="" style="group" parent="133" vertex="1" connectable="0"><mxGeometry x="10" y="10" width="60" height="80" as="geometry"/></mxCell><mxCell id="36" value="1" style="ellipse;whiteSpace=wrap;html=1;aspect=fixed;" parent="93" vertex="1"><mxGeometry x="5" width="50" height="50" as="geometry"/></mxCell><mxCell id="87" value="Goods" style="text;html=1;align=center;verticalAlign=middle;resizable=1;points=[];autosize=1;strokeColor=none;fillColor=none;movable=1;rotatable=1;deletable=1;editable=1;connectable=1;" parent="93" vertex="1"><mxGeometry y="50" width="60" height="30" as="geometry"/></mxCell><mxCell id="37" style="edgeStyle=orthogonalEdgeStyle;rounded=0;orthogonalLoop=1;jettySize=auto;html=1;" parent="133" source="36" target="5" edge="1"><mxGeometry relative="1" as="geometry"/></mxCell><mxCell id="102" style="edgeStyle=orthogonalEdgeStyle;rounded=0;orthogonalLoop=1;jettySize=auto;html=1;exitX=1;exitY=0.75;exitDx=0;exitDy=0;" parent="133" source="5" target="36" edge="1"><mxGeometry relative="1" as="geometry"><mxPoint y="90" as="targetPoint"/><Array as="points"><mxPoint x="120" y="53"/><mxPoint x="120" y="90"/><mxPoint y="90"/><mxPoint y="35"/></Array></mxGeometry></mxCell><mxCell id="134" value="" style="group" parent="1" vertex="1" connectable="0"><mxGeometry x="190" y="270" width="244" height="215" as="geometry"/></mxCell><mxCell id="22" value="" style="rounded=0;whiteSpace=wrap;html=1;fillColor=#1ba1e2;fontColor=#ffffff;strokeColor=#006EAF;" parent="134" vertex="1"><mxGeometry x="224" y="110" width="20" height="70" as="geometry"/></mxCell><mxCell id="128" value="" style="group" parent="134" vertex="1" connectable="0"><mxGeometry width="200" height="215" as="geometry"/></mxCell><mxCell id="96" value="" style="group" parent="128" vertex="1" connectable="0"><mxGeometry x="70" width="60" height="80" as="geometry"/></mxCell><mxCell id="79" value="n" style="ellipse;whiteSpace=wrap;html=1;aspect=fixed;" parent="96" vertex="1"><mxGeometry x="5" width="50" height="50" as="geometry"/></mxCell><mxCell id="95" value="Mixers" style="text;html=1;align=center;verticalAlign=middle;resizable=0;points=[];autosize=1;strokeColor=none;fillColor=none;" parent="96" vertex="1"><mxGeometry y="50" width="60" height="30" as="geometry"/></mxCell><mxCell id="111" value="" style="ellipse;whiteSpace=wrap;html=1;aspect=fixed;" parent="128" vertex="1"><mxGeometry y="120" width="50" height="50" as="geometry"/></mxCell><mxCell id="118" value="" style="group" parent="128" vertex="1" connectable="0"><mxGeometry x="70" y="110" width="60" height="105" as="geometry"/></mxCell><mxCell id="116" value="" style="rounded=0;whiteSpace=wrap;html=1;fillColor=#1ba1e2;fontColor=#ffffff;strokeColor=#006EAF;" parent="118" vertex="1"><mxGeometry x="20" width="20" height="70" as="geometry"/></mxCell><mxCell id="117" value="10 min&lt;br&gt;Mixing" style="text;html=1;align=center;verticalAlign=middle;resizable=0;points=[];autosize=1;strokeColor=none;fillColor=none;" parent="118" vertex="1"><mxGeometry y="65" width="60" height="40" as="geometry"/></mxCell><mxCell id="115" style="edgeStyle=orthogonalEdgeStyle;rounded=0;orthogonalLoop=1;jettySize=auto;html=1;" parent="128" source="111" target="116" edge="1"><mxGeometry relative="1" as="geometry"><mxPoint x="75" y="145" as="targetPoint"/></mxGeometry></mxCell><mxCell id="120" style="edgeStyle=orthogonalEdgeStyle;rounded=0;orthogonalLoop=1;jettySize=auto;html=1;exitX=1;exitY=0.5;exitDx=0;exitDy=0;" parent="128" source="116" target="121" edge="1"><mxGeometry relative="1" as="geometry"><mxPoint x="170" y="145" as="targetPoint"/></mxGeometry></mxCell><mxCell id="121" value="" style="ellipse;whiteSpace=wrap;html=1;aspect=fixed;" parent="128" vertex="1"><mxGeometry x="150" y="120" width="50" height="50" as="geometry"/></mxCell><mxCell id="125" style="edgeStyle=orthogonalEdgeStyle;rounded=0;orthogonalLoop=1;jettySize=auto;html=1;exitX=1;exitY=0.25;exitDx=0;exitDy=0;entryX=1;entryY=0.5;entryDx=0;entryDy=0;" parent="134" source="22" target="79" edge="1"><mxGeometry relative="1" as="geometry"><Array as="points"><mxPoint x="244" y="130"/><mxPoint x="260" y="130"/><mxPoint x="260" y="25"/></Array></mxGeometry></mxCell><mxCell id="124" style="edgeStyle=orthogonalEdgeStyle;rounded=0;orthogonalLoop=1;jettySize=auto;html=1;exitX=1;exitY=0.5;exitDx=0;exitDy=0;entryX=0;entryY=0.5;entryDx=0;entryDy=0;" parent="134" source="121" target="22" edge="1"><mxGeometry relative="1" as="geometry"/></mxCell><mxCell id="162" value="" style="group" parent="1" vertex="1" connectable="0"><mxGeometry x="460" y="400" width="50" height="10" as="geometry"/></mxCell><mxCell id="161" value="140" style="text;html=1;strokeColor=none;fillColor=none;align=center;verticalAlign=middle;whiteSpace=wrap;rounded=0;" parent="162" vertex="1"><mxGeometry x="-10" width="50" height="10" as="geometry"/></mxCell><mxCell id="164" value="" style="group;fillColor=none;strokeColor=#82b366;" parent="1" vertex="1" connectable="0"><mxGeometry x="500" y="390" width="70" height="80" as="geometry"/></mxCell><mxCell id="35" value="" style="ellipse;whiteSpace=wrap;html=1;aspect=fixed;" parent="164" vertex="1"><mxGeometry x="10" width="50" height="50" as="geometry"/></mxCell><mxCell id="163" value="dough kg" style="text;html=1;align=center;verticalAlign=middle;resizable=0;points=[];autosize=1;strokeColor=none;fillColor=none;" parent="164" vertex="1"><mxGeometry y="50" width="70" height="30" as="geometry"/></mxCell><mxCell id="40" style="edgeStyle=orthogonalEdgeStyle;rounded=0;orthogonalLoop=1;jettySize=auto;html=1;" parent="1" source="22" target="35" edge="1"><mxGeometry relative="1" as="geometry"><mxPoint x="860" y="450" as="targetPoint"/></mxGeometry></mxCell><mxCell id="180" style="edgeStyle=orthogonalEdgeStyle;rounded=0;orthogonalLoop=1;jettySize=auto;html=1;exitX=1;exitY=0.5;exitDx=0;exitDy=0;entryX=0;entryY=0.5;entryDx=0;entryDy=0;" parent="1" source="35" target="182" edge="1"><mxGeometry relative="1" as="geometry"><mxPoint x="595" y="415" as="targetPoint"/></mxGeometry></mxCell><mxCell id="231" style="edgeStyle=orthogonalEdgeStyle;rounded=0;orthogonalLoop=1;jettySize=auto;html=1;exitX=1;exitY=0.5;exitDx=0;exitDy=0;entryX=0;entryY=0.5;entryDx=0;entryDy=0;" parent="1" source="182" target="221" edge="1"><mxGeometry relative="1" as="geometry"/></mxCell><mxCell id="190" style="edgeStyle=orthogonalEdgeStyle;rounded=0;orthogonalLoop=1;jettySize=auto;html=1;entryX=0;entryY=0.25;entryDx=0;entryDy=0;" parent="1" source="219" target="182" edge="1"><mxGeometry relative="1" as="geometry"><mxPoint x="710" y="305" as="sourcePoint"/><mxPoint x="620" y="375" as="targetPoint"/></mxGeometry></mxCell><mxCell id="215" value="" style="group" parent="1" vertex="1" connectable="0"><mxGeometry x="730" y="270" width="244" height="215" as="geometry"/></mxCell><mxCell id="376" style="edgeStyle=orthogonalEdgeStyle;rounded=0;orthogonalLoop=1;jettySize=auto;html=1;exitX=0.5;exitY=0;exitDx=0;exitDy=0;entryX=1;entryY=0.5;entryDx=0;entryDy=0;" parent="215" source="216" target="219" edge="1"><mxGeometry relative="1" as="geometry"/></mxCell><mxCell id="216" value="" style="rounded=0;whiteSpace=wrap;html=1;fillColor=#1ba1e2;fontColor=#ffffff;strokeColor=#006EAF;" parent="215" vertex="1"><mxGeometry x="224" y="110" width="20" height="70" as="geometry"/></mxCell><mxCell id="217" value="" style="group" parent="215" vertex="1" connectable="0"><mxGeometry width="200" height="215" as="geometry"/></mxCell><mxCell id="218" value="" style="group" parent="217" vertex="1" connectable="0"><mxGeometry x="70" width="70" height="80" as="geometry"/></mxCell><mxCell id="219" value="n" style="ellipse;whiteSpace=wrap;html=1;aspect=fixed;" parent="218" vertex="1"><mxGeometry x="5" width="50" height="50" as="geometry"/></mxCell><mxCell id="220" value="Workers" style="text;html=1;align=center;verticalAlign=middle;resizable=0;points=[];autosize=1;strokeColor=none;fillColor=none;" parent="218" vertex="1"><mxGeometry x="-5" y="50" width="70" height="30" as="geometry"/></mxCell><mxCell id="221" value="" style="ellipse;whiteSpace=wrap;html=1;aspect=fixed;" parent="217" vertex="1"><mxGeometry y="120" width="50" height="50" as="geometry"/></mxCell><mxCell id="222" value="" style="group" parent="217" vertex="1" connectable="0"><mxGeometry x="70" y="110" width="95" height="105" as="geometry"/></mxCell><mxCell id="223" value="" style="rounded=0;whiteSpace=wrap;html=1;fillColor=#1ba1e2;fontColor=#ffffff;strokeColor=#006EAF;" parent="222" vertex="1"><mxGeometry x="20" width="20" height="70" as="geometry"/></mxCell><mxCell id="224" value="30 seconds&lt;br&gt;Making bread loaves" style="text;html=1;align=center;verticalAlign=middle;resizable=0;points=[];autosize=1;strokeColor=none;fillColor=none;" parent="222" vertex="1"><mxGeometry x="-35" y="65" width="130" height="40" as="geometry"/></mxCell><mxCell id="225" style="edgeStyle=orthogonalEdgeStyle;rounded=0;orthogonalLoop=1;jettySize=auto;html=1;" parent="217" source="221" target="223" edge="1"><mxGeometry relative="1" as="geometry"><mxPoint x="75" y="145" as="targetPoint"/></mxGeometry></mxCell><mxCell id="226" style="edgeStyle=orthogonalEdgeStyle;rounded=0;orthogonalLoop=1;jettySize=auto;html=1;exitX=1;exitY=0.5;exitDx=0;exitDy=0;" parent="217" source="223" target="227" edge="1"><mxGeometry relative="1" as="geometry"><mxPoint x="170" y="145" as="targetPoint"/></mxGeometry></mxCell><mxCell id="227" value="" style="ellipse;whiteSpace=wrap;html=1;aspect=fixed;" parent="217" vertex="1"><mxGeometry x="150" y="120" width="50" height="50" as="geometry"/></mxCell><mxCell id="229" style="edgeStyle=orthogonalEdgeStyle;rounded=0;orthogonalLoop=1;jettySize=auto;html=1;exitX=1;exitY=0.5;exitDx=0;exitDy=0;entryX=0;entryY=0.5;entryDx=0;entryDy=0;" parent="215" source="227" target="216" edge="1"><mxGeometry relative="1" as="geometry"/></mxCell><mxCell id="249" value="" style="group;fillColor=none;strokeColor=#82b366;" parent="1" vertex="1" connectable="0"><mxGeometry x="1030" y="390" width="70" height="80" as="geometry"/></mxCell><mxCell id="250" value="" style="ellipse;whiteSpace=wrap;html=1;aspect=fixed;" parent="249" vertex="1"><mxGeometry x="10" width="50" height="50" as="geometry"/></mxCell><mxCell id="251" value="loaf pcs" style="text;html=1;align=center;verticalAlign=middle;resizable=0;points=[];autosize=1;strokeColor=none;fillColor=none;" parent="249" vertex="1"><mxGeometry x="5" y="50" width="60" height="30" as="geometry"/></mxCell><mxCell id="258" style="edgeStyle=orthogonalEdgeStyle;rounded=0;orthogonalLoop=1;jettySize=auto;html=1;exitX=1;exitY=0.5;exitDx=0;exitDy=0;entryX=0;entryY=0.5;entryDx=0;entryDy=0;" parent="1" source="259" target="267" edge="1"><mxGeometry relative="1" as="geometry"/></mxCell><mxCell id="259" value="" style="rounded=0;whiteSpace=wrap;html=1;fillColor=#1ba1e2;fontColor=#ffffff;strokeColor=#006EAF;" parent="1" vertex="1"><mxGeometry x="1175" y="380" width="20" height="70" as="geometry"/></mxCell><mxCell id="260" style="edgeStyle=orthogonalEdgeStyle;rounded=0;orthogonalLoop=1;jettySize=auto;html=1;entryX=0;entryY=0.25;entryDx=0;entryDy=0;" parent="1" source="265" target="259" edge="1"><mxGeometry relative="1" as="geometry"><mxPoint x="1540" y="355" as="sourcePoint"/><mxPoint x="1450" y="425" as="targetPoint"/></mxGeometry></mxCell><mxCell id="285" style="edgeStyle=orthogonalEdgeStyle;rounded=0;orthogonalLoop=1;jettySize=auto;html=1;exitX=1;exitY=0.5;exitDx=0;exitDy=0;entryX=0;entryY=0.5;entryDx=0;entryDy=0;" parent="1" source="286" target="295" edge="1"><mxGeometry relative="1" as="geometry"/></mxCell><mxCell id="286" value="" style="rounded=0;whiteSpace=wrap;html=1;fillColor=#1ba1e2;fontColor=#ffffff;strokeColor=#006EAF;" parent="1" vertex="1"><mxGeometry x="349.94" y="680" width="20" height="70" as="geometry"/></mxCell><mxCell id="287" style="edgeStyle=orthogonalEdgeStyle;rounded=0;orthogonalLoop=1;jettySize=auto;html=1;entryX=0;entryY=0.25;entryDx=0;entryDy=0;" parent="1" source="293" target="286" edge="1"><mxGeometry relative="1" as="geometry"><mxPoint x="714.94" y="655" as="sourcePoint"/><mxPoint x="624.94" y="725" as="targetPoint"/></mxGeometry></mxCell><mxCell id="288" value="" style="group" parent="1" vertex="1" connectable="0"><mxGeometry x="404.94" y="570" width="437.5" height="215" as="geometry"/></mxCell><mxCell id="289" value="" style="group" parent="288" vertex="1" connectable="0"><mxGeometry width="244" height="215" as="geometry"/></mxCell><mxCell id="290" value="" style="rounded=0;whiteSpace=wrap;html=1;fillColor=#1ba1e2;fontColor=#ffffff;strokeColor=#006EAF;" parent="289" vertex="1"><mxGeometry x="224" y="110" width="20" height="70" as="geometry"/></mxCell><mxCell id="291" value="" style="group" parent="289" vertex="1" connectable="0"><mxGeometry width="200" height="215" as="geometry"/></mxCell><mxCell id="292" value="" style="group" parent="291" vertex="1" connectable="0"><mxGeometry x="70" width="70" height="80" as="geometry"/></mxCell><mxCell id="293" value="n" style="ellipse;whiteSpace=wrap;html=1;aspect=fixed;" parent="292" vertex="1"><mxGeometry x="5" width="50" height="50" as="geometry"/></mxCell><mxCell id="294" value="Ovens" style="text;html=1;align=center;verticalAlign=middle;resizable=0;points=[];autosize=1;strokeColor=none;fillColor=none;" parent="292" vertex="1"><mxGeometry y="50" width="60" height="30" as="geometry"/></mxCell><mxCell id="295" value="" style="ellipse;whiteSpace=wrap;html=1;aspect=fixed;" parent="291" vertex="1"><mxGeometry y="120" width="50" height="50" as="geometry"/></mxCell><mxCell id="296" value="" style="group" parent="291" vertex="1" connectable="0"><mxGeometry x="70" y="110" width="95" height="105" as="geometry"/></mxCell><mxCell id="297" value="" style="rounded=0;whiteSpace=wrap;html=1;fillColor=#1ba1e2;fontColor=#ffffff;strokeColor=#006EAF;" parent="296" vertex="1"><mxGeometry x="20" width="20" height="70" as="geometry"/></mxCell><mxCell id="298" value="30 min&lt;br&gt;Baking" style="text;html=1;align=center;verticalAlign=middle;resizable=0;points=[];autosize=1;strokeColor=none;fillColor=none;" parent="296" vertex="1"><mxGeometry y="65" width="60" height="40" as="geometry"/></mxCell><mxCell id="299" style="edgeStyle=orthogonalEdgeStyle;rounded=0;orthogonalLoop=1;jettySize=auto;html=1;" parent="291" source="295" target="297" edge="1"><mxGeometry relative="1" as="geometry"><mxPoint x="75" y="145" as="targetPoint"/></mxGeometry></mxCell><mxCell id="300" style="edgeStyle=orthogonalEdgeStyle;rounded=0;orthogonalLoop=1;jettySize=auto;html=1;exitX=1;exitY=0.5;exitDx=0;exitDy=0;" parent="291" source="297" target="301" edge="1"><mxGeometry relative="1" as="geometry"><mxPoint x="170" y="145" as="targetPoint"/></mxGeometry></mxCell><mxCell id="301" value="" style="ellipse;whiteSpace=wrap;html=1;aspect=fixed;" parent="291" vertex="1"><mxGeometry x="150" y="120" width="50" height="50" as="geometry"/></mxCell><mxCell id="302" style="edgeStyle=orthogonalEdgeStyle;rounded=0;orthogonalLoop=1;jettySize=auto;html=1;exitX=1;exitY=0.25;exitDx=0;exitDy=0;entryX=1;entryY=0.5;entryDx=0;entryDy=0;" parent="289" source="290" target="293" edge="1"><mxGeometry relative="1" as="geometry"><Array as="points"><mxPoint x="244" y="120"/><mxPoint x="250" y="120"/><mxPoint x="250" y="25"/></Array></mxGeometry></mxCell><mxCell id="303" style="edgeStyle=orthogonalEdgeStyle;rounded=0;orthogonalLoop=1;jettySize=auto;html=1;exitX=1;exitY=0.5;exitDx=0;exitDy=0;entryX=0;entryY=0.5;entryDx=0;entryDy=0;" parent="289" source="301" target="290" edge="1"><mxGeometry relative="1" as="geometry"/></mxCell><mxCell id="309" style="edgeStyle=orthogonalEdgeStyle;rounded=0;orthogonalLoop=1;jettySize=auto;html=1;exitX=1;exitY=0.5;exitDx=0;exitDy=0;" parent="288" source="290" target="305" edge="1"><mxGeometry relative="1" as="geometry"><mxPoint x="325.06" y="145" as="targetPoint"/></mxGeometry></mxCell><mxCell id="318" value="" style="group;fillColor=none;strokeColor=#82b366;fillStyle=auto;rounded=0;" parent="288" vertex="1" connectable="0"><mxGeometry x="317.5" y="120" width="120" height="80" as="geometry"/></mxCell><mxCell id="304" value="" style="group;" parent="318" vertex="1" connectable="0"><mxGeometry x="12.5" width="95" height="80" as="geometry"/></mxCell><mxCell id="305" value="" style="ellipse;whiteSpace=wrap;html=1;aspect=fixed;" parent="304" vertex="1"><mxGeometry x="10" width="50" height="50" as="geometry"/></mxCell><mxCell id="306" value="cart of breads pcs" style="text;html=1;align=center;verticalAlign=middle;resizable=0;points=[];autosize=1;strokeColor=none;fillColor=none;" parent="318" vertex="1"><mxGeometry y="50" width="120" height="30" as="geometry"/></mxCell><mxCell id="313" value="" style="group" parent="1" vertex="1" connectable="0"><mxGeometry x="1110" y="390" width="40" height="30" as="geometry"/></mxCell><mxCell id="257" style="edgeStyle=orthogonalEdgeStyle;rounded=0;orthogonalLoop=1;jettySize=auto;html=1;exitX=1;exitY=0.5;exitDx=0;exitDy=0;entryX=0;entryY=0.5;entryDx=0;entryDy=0;" parent="313" source="250" target="259" edge="1"><mxGeometry relative="1" as="geometry"><mxPoint x="280" y="75" as="sourcePoint"/><mxPoint x="315" y="75" as="targetPoint"/></mxGeometry></mxCell><mxCell id="312" value="70" style="text;html=1;align=center;verticalAlign=middle;resizable=0;points=[];autosize=1;strokeColor=none;fillColor=none;" parent="313" vertex="1"><mxGeometry width="40" height="30" as="geometry"/></mxCell><mxCell id="316" value="" style="group" parent="1" vertex="1" connectable="0"><mxGeometry x="1230" y="270" width="437.5" height="215" as="geometry"/></mxCell><mxCell id="283" value="" style="group" parent="316" vertex="1" connectable="0"><mxGeometry width="425" height="215" as="geometry"/></mxCell><mxCell id="261" value="" style="group" parent="283" vertex="1" connectable="0"><mxGeometry width="244" height="215" as="geometry"/></mxCell><mxCell id="262" value="" style="rounded=0;whiteSpace=wrap;html=1;fillColor=#1ba1e2;fontColor=#ffffff;strokeColor=#006EAF;" parent="261" vertex="1"><mxGeometry x="224" y="110" width="20" height="70" as="geometry"/></mxCell><mxCell id="263" value="" style="group" parent="261" vertex="1" connectable="0"><mxGeometry width="200" height="215" as="geometry"/></mxCell><mxCell id="264" value="" style="group" parent="263" vertex="1" connectable="0"><mxGeometry x="70" width="80" height="80" as="geometry"/></mxCell><mxCell id="265" value="n" style="ellipse;whiteSpace=wrap;html=1;aspect=fixed;" parent="264" vertex="1"><mxGeometry x="5" width="50" height="50" as="geometry"/></mxCell><mxCell id="266" value="Space for carts" style="text;html=1;align=center;verticalAlign=middle;resizable=0;points=[];autosize=1;strokeColor=none;fillColor=none;" parent="264" vertex="1"><mxGeometry x="-20" y="50" width="100" height="30" as="geometry"/></mxCell><mxCell id="267" value="" style="ellipse;whiteSpace=wrap;html=1;aspect=fixed;" parent="263" vertex="1"><mxGeometry y="120" width="50" height="50" as="geometry"/></mxCell><mxCell id="268" value="" style="group" parent="263" vertex="1" connectable="0"><mxGeometry x="70" y="110" width="95" height="105" as="geometry"/></mxCell><mxCell id="269" value="" style="rounded=0;whiteSpace=wrap;html=1;fillColor=#1ba1e2;fontColor=#ffffff;strokeColor=#006EAF;" parent="268" vertex="1"><mxGeometry x="20" width="20" height="70" as="geometry"/></mxCell><mxCell id="270" value="20 min&lt;br&gt;Fermentation" style="text;html=1;align=center;verticalAlign=middle;resizable=0;points=[];autosize=1;strokeColor=none;fillColor=none;" parent="268" vertex="1"><mxGeometry x="-15" y="65" width="90" height="40" as="geometry"/></mxCell><mxCell id="271" style="edgeStyle=orthogonalEdgeStyle;rounded=0;orthogonalLoop=1;jettySize=auto;html=1;" parent="263" source="267" target="269" edge="1"><mxGeometry relative="1" as="geometry"><mxPoint x="75" y="145" as="targetPoint"/></mxGeometry></mxCell><mxCell id="272" style="edgeStyle=orthogonalEdgeStyle;rounded=0;orthogonalLoop=1;jettySize=auto;html=1;exitX=1;exitY=0.5;exitDx=0;exitDy=0;" parent="263" source="269" target="273" edge="1"><mxGeometry relative="1" as="geometry"><mxPoint x="170" y="145" as="targetPoint"/></mxGeometry></mxCell><mxCell id="273" value="" style="ellipse;whiteSpace=wrap;html=1;aspect=fixed;" parent="263" vertex="1"><mxGeometry x="150" y="120" width="50" height="50" as="geometry"/></mxCell><mxCell id="274" style="edgeStyle=orthogonalEdgeStyle;rounded=0;orthogonalLoop=1;jettySize=auto;html=1;exitX=1;exitY=0.25;exitDx=0;exitDy=0;entryX=1;entryY=0.5;entryDx=0;entryDy=0;" parent="261" source="262" target="265" edge="1"><mxGeometry relative="1" as="geometry"><Array as="points"><mxPoint x="244" y="120"/><mxPoint x="250" y="120"/><mxPoint x="250" y="25"/></Array></mxGeometry></mxCell><mxCell id="275" style="edgeStyle=orthogonalEdgeStyle;rounded=0;orthogonalLoop=1;jettySize=auto;html=1;exitX=1;exitY=0.5;exitDx=0;exitDy=0;entryX=0;entryY=0.5;entryDx=0;entryDy=0;" parent="261" source="273" target="262" edge="1"><mxGeometry relative="1" as="geometry"/></mxCell><mxCell id="276" value="" style="group;fillColor=none;strokeColor=#82b366;" parent="283" vertex="1" connectable="0"><mxGeometry x="-1040.06" y="420" width="95" height="80" as="geometry"/></mxCell><mxCell id="277" value="" style="ellipse;whiteSpace=wrap;html=1;aspect=fixed;" parent="276" vertex="1"><mxGeometry x="10" width="50" height="50" as="geometry"/></mxCell><mxCell id="280" style="edgeStyle=orthogonalEdgeStyle;rounded=0;orthogonalLoop=1;jettySize=auto;html=1;exitX=1;exitY=0.5;exitDx=0;exitDy=0;" parent="283" source="262" target="277" edge="1"><mxGeometry relative="1" as="geometry"><Array as="points"><mxPoint x="264" y="145"/><mxPoint x="264" y="270"/><mxPoint x="-1005" y="270"/></Array></mxGeometry></mxCell><mxCell id="278" value="cart of loaves pcs" style="text;html=1;align=center;verticalAlign=middle;resizable=0;points=[];autosize=1;strokeColor=none;fillColor=none;" parent="316" vertex="1"><mxGeometry x="-1052.56" y="470" width="120" height="30" as="geometry"/></mxCell><mxCell id="317" style="edgeStyle=orthogonalEdgeStyle;rounded=0;orthogonalLoop=1;jettySize=auto;html=1;exitX=1;exitY=0.5;exitDx=0;exitDy=0;entryX=0;entryY=0.5;entryDx=0;entryDy=0;" parent="1" source="277" target="286" edge="1"><mxGeometry relative="1" as="geometry"/></mxCell><mxCell id="349" value="" style="group" parent="1" vertex="1" connectable="0"><mxGeometry x="620" y="380" width="45" height="105" as="geometry"/></mxCell><mxCell id="182" value="&lt;span style=&quot;color: rgba(0, 0, 0, 0); font-family: monospace; font-size: 0px; text-align: start;&quot;&gt;%3CmxGraphModel%3E%3Croot%3E%3CmxCell%20id%3D%220%22%2F%3E%3CmxCell%20id%3D%221%22%20parent%3D%220%22%2F%3E%3CmxCell%20id%3D%222%22%20value%3D%22%22%20style%3D%22group%22%20vertex%3D%221%22%20connectable%3D%220%22%20parent%3D%221%22%3E%3CmxGeometry%20x%3D%22190%22%20y%3D%22270%22%20width%3D%22244%22%20height%3D%22215%22%20as%3D%22geometry%22%2F%3E%3C%2FmxCell%3E%3CmxCell%20id%3D%223%22%20value%3D%22%22%20style%3D%22rounded%3D0%3BwhiteSpace%3Dwrap%3Bhtml%3D1%3BfillColor%3D%231ba1e2%3BfontColor%3D%23ffffff%3BstrokeColor%3D%23006EAF%3B%22%20vertex%3D%221%22%20parent%3D%222%22%3E%3CmxGeometry%20x%3D%22224%22%20y%3D%22110%22%20width%3D%2220%22%20height%3D%2270%22%20as%3D%22geometry%22%2F%3E%3C%2FmxCell%3E%3CmxCell%20id%3D%224%22%20value%3D%22%22%20style%3D%22group%22%20vertex%3D%221%22%20connectable%3D%220%22%20parent%3D%222%22%3E%3CmxGeometry%20width%3D%22200%22%20height%3D%22215%22%20as%3D%22geometry%22%2F%3E%3C%2FmxCell%3E%3CmxCell%20id%3D%225%22%20value%3D%22%22%20style%3D%22group%22%20vertex%3D%221%22%20connectable%3D%220%22%20parent%3D%224%22%3E%3CmxGeometry%20x%3D%2270%22%20width%3D%2260%22%20height%3D%2280%22%20as%3D%22geometry%22%2F%3E%3C%2FmxCell%3E%3CmxCell%20id%3D%226%22%20value%3D%22n%3D%3F%22%20style%3D%22ellipse%3BwhiteSpace%3Dwrap%3Bhtml%3D1%3Baspect%3Dfixed%3B%22%20vertex%3D%221%22%20parent%3D%225%22%3E%3CmxGeometry%20x%3D%225%22%20width%3D%2250%22%20height%3D%2250%22%20as%3D%22geometry%22%2F%3E%3C%2FmxCell%3E%3CmxCell%20id%3D%227%22%20value%3D%22Mixers%22%20style%3D%22text%3Bhtml%3D1%3Balign%3Dcenter%3BverticalAlign%3Dmiddle%3Bresizable%3D0%3Bpoints%3D%5B%5D%3Bautosize%3D1%3BstrokeColor%3Dnone%3BfillColor%3Dnone%3B%22%20vertex%3D%221%22%20parent%3D%225%22%3E%3CmxGeometry%20y%3D%2250%22%20width%3D%2260%22%20height%3D%2230%22%20as%3D%22geometry%22%2F%3E%3C%2FmxCell%3E%3CmxCell%20id%3D%228%22%20value%3D%22%22%20style%3D%22ellipse%3BwhiteSpace%3Dwrap%3Bhtml%3D1%3Baspect%3Dfixed%3B%22%20vertex%3D%221%22%20parent%3D%224%22%3E%3CmxGeometry%20y%3D%22120%22%20width%3D%2250%22%20height%3D%2250%22%20as%3D%22geometry%22%2F%3E%3C%2FmxCell%3E%3CmxCell%20id%3D%229%22%20value%3D%22%22%20style%3D%22group%22%20vertex%3D%221%22%20connectable%3D%220%22%20parent%3D%224%22%3E%3CmxGeometry%20x%3D%2270%22%20y%3D%22110%22%20width%3D%2260%22%20height%3D%22105%22%20as%3D%22geometry%22%2F%3E%3C%2FmxCell%3E%3CmxCell%20id%3D%2210%22%20value%3D%22%22%20style%3D%22rounded%3D0%3BwhiteSpace%3Dwrap%3Bhtml%3D1%3BfillColor%3D%231ba1e2%3BfontColor%3D%23ffffff%3BstrokeColor%3D%23006EAF%3B%22%20vertex%3D%221%22%20parent%3D%229%22%3E%3CmxGeometry%20x%3D%2220%22%20width%3D%2220%22%20height%3D%2270%22%20as%3D%22geometry%22%2F%3E%3C%2FmxCell%3E%3CmxCell%20id%3D%2211%22%20value%3D%22time%3D%3F%26lt%3Bbr%26gt%3BMixing%22%20style%3D%22text%3Bhtml%3D1%3Balign%3Dcenter%3BverticalAlign%3Dmiddle%3Bresizable%3D0%3Bpoints%3D%5B%5D%3Bautosize%3D1%3BstrokeColor%3Dnone%3BfillColor%3Dnone%3B%22%20vertex%3D%221%22%20parent%3D%229%22%3E%3CmxGeometry%20y%3D%2265%22%20width%3D%2260%22%20height%3D%2240%22%20as%3D%22geometry%22%2F%3E%3C%2FmxCell%3E%3CmxCell%20id%3D%2212%22%20style%3D%22edgeStyle%3DorthogonalEdgeStyle%3Brounded%3D0%3BorthogonalLoop%3D1%3BjettySize%3Dauto%3Bhtml%3D1%3B%22%20edge%3D%221%22%20parent%3D%224%22%20source%3D%228%22%20target%3D%2210%22%3E%3CmxGeometry%20relative%3D%221%22%20as%3D%22geometry%22%3E%3CmxPoint%20x%3D%2275%22%20y%3D%22145%22%20as%3D%22targetPoint%22%2F%3E%3C%2FmxGeometry%3E%3C%2FmxCell%3E%3CmxCell%20id%3D%2213%22%20style%3D%22edgeStyle%3DorthogonalEdgeStyle%3Brounded%3D0%3BorthogonalLoop%3D1%3BjettySize%3Dauto%3Bhtml%3D1%3BexitX%3D1%3BexitY%3D0.5%3BexitDx%3D0%3BexitDy%3D0%3B%22%20edge%3D%221%22%20parent%3D%224%22%20source%3D%2210%22%20target%3D%2214%22%3E%3CmxGeometry%20relative%3D%221%22%20as%3D%22geometry%22%3E%3CmxPoint%20x%3D%22170%22%20y%3D%22145%22%20as%3D%22targetPoint%22%2F%3E%3C%2FmxGeometry%3E%3C%2FmxCell%3E%3CmxCell%20id%3D%2214%22%20value%3D%22%22%20style%3D%22ellipse%3BwhiteSpace%3Dwrap%3Bhtml%3D1%3Baspect%3Dfixed%3B%22%20vertex%3D%221%22%20parent%3D%224%22%3E%3CmxGeometry%20x%3D%22150%22%20y%3D%22120%22%20width%3D%2250%22%20height%3D%2250%22%20as%3D%22geometry%22%2F%3E%3C%2FmxCell%3E%3CmxCell%20id%3D%2215%22%20style%3D%22edgeStyle%3DorthogonalEdgeStyle%3Brounded%3D0%3BorthogonalLoop%3D1%3BjettySize%3Dauto%3Bhtml%3D1%3BexitX%3D1%3BexitY%3D0.25%3BexitDx%3D0%3BexitDy%3D0%3BentryX%3D1%3BentryY%3D0.5%3BentryDx%3D0%3BentryDy%3D0%3B%22%20edge%3D%221%22%20parent%3D%222%22%20source%3D%223%22%20target%3D%226%22%3E%3CmxGeometry%20relative%3D%221%22%20as%3D%22geometry%22%3E%3CArray%20as%3D%22points%22%3E%3CmxPoint%20x%3D%22244%22%20y%3D%22130%22%2F%3E%3CmxPoint%20x%3D%22260%22%20y%3D%22130%22%2F%3E%3CmxPoint%20x%3D%22260%22%20y%3D%2225%22%2F%3E%3C%2FArray%3E%3C%2FmxGeometry%3E%3C%2FmxCell%3E%3CmxCell%20id%3D%2216%22%20style%3D%22edgeStyle%3DorthogonalEdgeStyle%3Brounded%3D0%3BorthogonalLoop%3D1%3BjettySize%3Dauto%3Bhtml%3D1%3BexitX%3D1%3BexitY%3D0.5%3BexitDx%3D0%3BexitDy%3D0%3BentryX%3D0%3BentryY%3D0.5%3BentryDx%3D0%3BentryDy%3D0%3B%22%20edge%3D%221%22%20parent%3D%222%22%20source%3D%2214%22%20target%3D%223%22%3E%3CmxGeometry%20relative%3D%221%22%20as%3D%22geometry%22%2F%3E%3C%2FmxCell%3E%3C%2Froot%3E%3C%2FmxGraphModel%3E&lt;/span&gt;" style="rounded=0;whiteSpace=wrap;html=1;fillColor=#1ba1e2;fontColor=#ffffff;strokeColor=#006EAF;" parent="349" vertex="1"><mxGeometry x="10" width="20" height="70" as="geometry"/></mxCell><mxCell id="381" style="edgeStyle=orthogonalEdgeStyle;rounded=0;orthogonalLoop=1;jettySize=auto;html=1;exitX=1;exitY=0.5;exitDx=0;exitDy=0;" parent="1" source="216" target="250" edge="1"><mxGeometry relative="1" as="geometry"/></mxCell><mxCell id="463" value="" style="group" parent="1" vertex="1" connectable="0"><mxGeometry y="230" width="125" height="90" as="geometry"/></mxCell><mxCell id="461" value="n" style="ellipse;whiteSpace=wrap;html=1;aspect=fixed;" parent="463" vertex="1"><mxGeometry x="35" width="50" height="50" as="geometry"/></mxCell><mxCell id="462" value="Number of breads&lt;br&gt;&amp;nbsp;to make" style="text;html=1;align=center;verticalAlign=middle;resizable=0;points=[];autosize=1;strokeColor=none;fillColor=none;" parent="463" vertex="1"><mxGeometry y="50" width="120" height="40" as="geometry"/></mxCell><mxCell id="469" value="140" style="text;html=1;align=center;verticalAlign=middle;resizable=0;points=[];autosize=1;strokeColor=none;fillColor=none;" parent="463" vertex="1"><mxGeometry x="85" width="40" height="30" as="geometry"/></mxCell><mxCell id="465" style="edgeStyle=orthogonalEdgeStyle;rounded=0;orthogonalLoop=1;jettySize=auto;html=1;exitX=1;exitY=0.5;exitDx=0;exitDy=0;entryX=0;entryY=0.75;entryDx=0;entryDy=0;" parent="1" source="461" target="5" edge="1"><mxGeometry relative="1" as="geometry"><Array as="points"><mxPoint x="85" y="255"/><mxPoint x="110" y="255"/><mxPoint x="110" y="433"/></Array></mxGeometry></mxCell><mxCell id="427" style="edgeStyle=orthogonalEdgeStyle;rounded=0;orthogonalLoop=1;jettySize=auto;html=1;exitX=1;exitY=0.5;exitDx=0;exitDy=0;entryX=0;entryY=0.5;entryDx=0;entryDy=0;" parent="1" source="428" target="436" edge="1"><mxGeometry relative="1" as="geometry"/></mxCell><mxCell id="428" value="" style="rounded=0;whiteSpace=wrap;html=1;fillColor=#1ba1e2;fontColor=#ffffff;strokeColor=#006EAF;" parent="1" vertex="1"><mxGeometry x="1159.99" y="680" width="20" height="70" as="geometry"/></mxCell><mxCell id="429" style="edgeStyle=orthogonalEdgeStyle;rounded=0;orthogonalLoop=1;jettySize=auto;html=1;entryX=0;entryY=0.25;entryDx=0;entryDy=0;" parent="1" target="428" edge="1"><mxGeometry relative="1" as="geometry"><mxPoint x="1289.99" y="594.9999999999998" as="sourcePoint"/><mxPoint x="1434.99" y="725" as="targetPoint"/></mxGeometry></mxCell><mxCell id="431" value="" style="rounded=0;whiteSpace=wrap;html=1;fillColor=#1ba1e2;fontColor=#ffffff;strokeColor=#006EAF;" parent="1" vertex="1"><mxGeometry x="1438.99" y="680" width="20" height="70" as="geometry"/></mxCell><mxCell id="435" value="Workers" style="text;html=1;align=center;verticalAlign=middle;resizable=0;points=[];autosize=1;strokeColor=none;fillColor=none;" parent="1" vertex="1"><mxGeometry x="1279.99" y="620" width="70" height="30" as="geometry"/></mxCell><mxCell id="438" value="" style="rounded=0;whiteSpace=wrap;html=1;fillColor=#1ba1e2;fontColor=#ffffff;strokeColor=#006EAF;" parent="1" vertex="1"><mxGeometry x="1304.99" y="680" width="20" height="70" as="geometry"/></mxCell><mxCell id="440" style="edgeStyle=orthogonalEdgeStyle;rounded=0;orthogonalLoop=1;jettySize=auto;html=1;" parent="1" source="436" target="438" edge="1"><mxGeometry relative="1" as="geometry"><mxPoint x="1289.99" y="715" as="targetPoint"/></mxGeometry></mxCell><mxCell id="441" style="edgeStyle=orthogonalEdgeStyle;rounded=0;orthogonalLoop=1;jettySize=auto;html=1;exitX=1;exitY=0.5;exitDx=0;exitDy=0;" parent="1" source="438" target="442" edge="1"><mxGeometry relative="1" as="geometry"><mxPoint x="1384.99" y="715" as="targetPoint"/></mxGeometry></mxCell><mxCell id="442" value="" style="ellipse;whiteSpace=wrap;html=1;aspect=fixed;" parent="1" vertex="1"><mxGeometry x="1364.99" y="690" width="50" height="50" as="geometry"/></mxCell><mxCell id="444" style="edgeStyle=orthogonalEdgeStyle;rounded=0;orthogonalLoop=1;jettySize=auto;html=1;exitX=1;exitY=0.5;exitDx=0;exitDy=0;entryX=0;entryY=0.5;entryDx=0;entryDy=0;" parent="1" source="442" target="431" edge="1"><mxGeometry relative="1" as="geometry"/></mxCell><mxCell id="456" style="edgeStyle=orthogonalEdgeStyle;rounded=0;orthogonalLoop=1;jettySize=auto;html=1;exitX=1;exitY=0.25;exitDx=0;exitDy=0;entryX=1;entryY=0.5;entryDx=0;entryDy=0;" parent="1" source="431" edge="1"><mxGeometry relative="1" as="geometry"><mxPoint x="1339.9900000000237" y="595.0000000000002" as="targetPoint"/><Array as="points"><mxPoint x="1469.99" y="698"/><mxPoint x="1469.99" y="595"/></Array></mxGeometry></mxCell><mxCell id="473" value="" style="group" parent="1" vertex="1" connectable="0"><mxGeometry x="1214.99" y="570" width="244" height="215" as="geometry"/></mxCell><mxCell id="430" value="" style="group" parent="473" vertex="1" connectable="0"><mxGeometry width="244" height="215" as="geometry"/></mxCell><mxCell id="432" value="" style="group" parent="430" vertex="1" connectable="0"><mxGeometry width="200" height="215" as="geometry"/></mxCell><mxCell id="433" value="" style="group" parent="432" vertex="1" connectable="0"><mxGeometry x="70" width="70" height="80" as="geometry"/></mxCell><mxCell id="434" value="n" style="ellipse;whiteSpace=wrap;html=1;aspect=fixed;" parent="433" vertex="1"><mxGeometry x="5" width="50" height="50" as="geometry"/></mxCell><mxCell id="437" value="" style="group" parent="432" vertex="1" connectable="0"><mxGeometry x="70" y="110" width="95" height="105" as="geometry"/></mxCell><mxCell id="439" value="10 seconds&lt;br&gt;Packing" style="text;html=1;align=center;verticalAlign=middle;resizable=0;points=[];autosize=1;strokeColor=none;fillColor=none;" parent="437" vertex="1"><mxGeometry x="-10" y="65" width="80" height="40" as="geometry"/></mxCell><mxCell id="436" value="" style="ellipse;whiteSpace=wrap;html=1;aspect=fixed;" parent="473" vertex="1"><mxGeometry y="120" width="50" height="50" as="geometry"/></mxCell><mxCell id="477" style="edgeStyle=orthogonalEdgeStyle;rounded=0;orthogonalLoop=1;jettySize=auto;html=1;exitX=1;exitY=0.5;exitDx=0;exitDy=0;" parent="1" source="474" target="476" edge="1"><mxGeometry relative="1" as="geometry"><mxPoint x="940" y="800" as="targetPoint"/></mxGeometry></mxCell><mxCell id="474" value="" style="rounded=0;whiteSpace=wrap;html=1;fillColor=#1ba1e2;fontColor=#ffffff;strokeColor=#006EAF;" parent="1" vertex="1"><mxGeometry x="900" y="680" width="20" height="70" as="geometry"/></mxCell><mxCell id="478" value="70" style="text;html=1;align=center;verticalAlign=middle;resizable=0;points=[];autosize=1;strokeColor=none;fillColor=none;" parent="1" vertex="1"><mxGeometry x="934" y="691.5" width="40" height="30" as="geometry"/></mxCell><mxCell id="485" value="" style="group;fillColor=none;strokeColor=#82b366;" parent="1" vertex="1" connectable="0"><mxGeometry x="990" y="691.5" width="120" height="77" as="geometry"/></mxCell><mxCell id="476" value="" style="ellipse;whiteSpace=wrap;html=1;aspect=fixed;" parent="485" vertex="1"><mxGeometry x="36.5" width="47" height="47" as="geometry"/></mxCell><mxCell id="484" value="Number of breads" style="text;html=1;align=center;verticalAlign=middle;resizable=0;points=[];autosize=1;strokeColor=none;fillColor=none;" parent="485" vertex="1"><mxGeometry y="47" width="120" height="30" as="geometry"/></mxCell><mxCell id="488" style="edgeStyle=orthogonalEdgeStyle;rounded=0;orthogonalLoop=1;jettySize=auto;html=1;exitX=1;exitY=0.5;exitDx=0;exitDy=0;entryX=0;entryY=0.5;entryDx=0;entryDy=0;strokeWidth=1;" parent="1" source="476" target="428" edge="1"><mxGeometry relative="1" as="geometry"/></mxCell><mxCell id="489" value="&lt;font style=&quot;font-size: 15px;&quot;&gt;n = &amp;lt;1, 9&amp;gt;&lt;/font&gt;" style="text;html=1;align=center;verticalAlign=middle;resizable=0;points=[];autosize=1;strokeColor=none;fillColor=none;" vertex="1" parent="1"><mxGeometry x="1390" y="810" width="90" height="30" as="geometry"/></mxCell></root></mxGraphModel></diagram></mxfile>